<?xml version="1.0" encoding="UTF-8" ?>
<!DOCTYPE svg PUBLIC "-//W3C//DTD SVG 1.1//EN" "http://www.w3.org/Graphics/SVG/1.1/DTD/svg11.dtd">
<svg width="500pt" height="500pt" viewBox="0 0 500 500" version="1.1" xmlns="http://www.w3.org/2000/svg">
<path fill="#ffffff" d=" M 0.00 0.00 L 500.00 0.00 L 500.00 500.00 L 0.00 500.00 L 0.00 0.00 Z" />
<path fill="#4f5d10" d=" M 244.45 37.53 C 281.54 36.14 318.99 45.36 351.22 63.78 C 401.65 93.04 441.62 142.45 454.02 200.00 C 465.19 251.31 458.87 307.31 431.84 352.82 C 412.05 386.28 383.24 414.33 349.41 433.45 C 324.49 447.45 296.42 455.57 267.96 457.76 C 233.85 461.03 198.71 456.36 167.14 442.81 C 137.15 430.27 110.86 409.87 89.26 385.74 C 67.73 361.27 51.43 331.85 43.99 300.00 C 32.40 249.70 37.14 194.74 62.17 149.11 C 88.62 101.61 132.66 63.14 184.86 46.80 C 204.16 40.88 224.31 38.23 244.45 37.53 Z" />
<path fill="#ffffff" d=" M 237.98 73.84 C 283.84 70.18 330.55 86.61 364.59 117.43 C 365.81 126.48 361.87 137.48 369.39 144.64 C 389.46 168.02 403.22 197.16 406.07 228.03 C 411.51 270.06 399.68 314.59 371.84 346.86 C 369.85 349.46 367.27 351.72 365.89 354.75 C 363.93 362.61 366.72 371.47 364.03 379.09 C 349.64 392.05 332.92 402.62 314.99 410.01 C 291.67 420.19 265.82 423.00 240.59 422.52 C 200.70 421.75 161.61 405.59 132.37 378.51 C 132.11 370.46 131.91 362.41 131.65 354.37 C 112.35 333.34 97.93 307.30 92.97 279.01 C 89.07 256.56 88.48 233.23 93.94 210.98 C 99.22 186.69 111.19 164.12 127.48 145.43 C 135.66 138.20 129.31 125.82 133.08 117.05 C 161.39 90.71 199.42 75.46 237.98 73.84 Z" />
<path fill="#4f5d10" d=" M 200.36 168.17 C 232.54 167.82 264.72 168.03 296.90 168.03 C 310.87 191.72 324.98 215.33 339.17 238.88 C 341.16 242.68 345.62 247.16 342.61 251.60 C 327.33 277.03 311.89 302.38 296.87 327.97 C 264.69 327.98 232.51 328.14 200.33 327.88 C 185.34 302.51 170.02 277.33 154.90 252.05 C 152.78 249.61 152.78 246.39 154.90 243.95 C 170.05 218.69 185.28 193.47 200.36 168.17 Z" />
<path fill="#ffffff" d=" M 222.32 204.17 C 239.84 203.90 257.37 203.96 274.90 204.04 C 283.35 218.87 292.51 233.27 301.18 247.98 C 292.71 262.81 283.35 277.11 274.87 291.94 C 257.36 292.06 239.84 292.08 222.33 291.88 C 213.72 277.12 204.57 262.69 195.85 248.00 C 204.69 233.40 213.73 218.92 222.32 204.17 Z" />
<path fill="#4f5d10" d=" M 244.43 216.48 C 256.81 214.24 269.95 221.13 275.96 232.02 C 283.93 244.62 281.22 263.13 269.37 272.38 C 257.05 283.83 235.40 282.31 224.76 269.25 C 210.63 254.95 216.20 227.78 234.42 219.53 C 237.66 218.28 240.97 216.99 244.43 216.48 Z" />
</svg>
