<?xml version="1.0" encoding="UTF-8" standalone="no"?>
<!-- Created with Inkscape (http://www.inkscape.org/) -->

<svg
   xmlns:dc="http://purl.org/dc/elements/1.1/"
   xmlns:cc="http://creativecommons.org/ns#"
   xmlns:rdf="http://www.w3.org/1999/02/22-rdf-syntax-ns#"
   xmlns:svg="http://www.w3.org/2000/svg"
   xmlns="http://www.w3.org/2000/svg"
   xmlns:sodipodi="http://sodipodi.sourceforge.net/DTD/sodipodi-0.dtd"
   xmlns:inkscape="http://www.inkscape.org/namespaces/inkscape"
   version="1.1"
   width="500"
   height="375"
   id="svg2"
   xml:space="preserve"
   inkscape:version="0.48.5 r10040"
   sodipodi:docname="falcon.svg"><sodipodi:namedview
     pagecolor="#ffffff"
     bordercolor="#666666"
     borderopacity="1"
     objecttolerance="10"
     gridtolerance="10"
     guidetolerance="10"
     inkscape:pageopacity="0"
     inkscape:pageshadow="2"
     inkscape:window-width="2697"
     inkscape:window-height="1496"
     id="namedview93"
     showgrid="false"
     inkscape:zoom="18.569567"
     inkscape:cx="147.69421"
     inkscape:cy="294.67697"
     inkscape:window-x="0"
     inkscape:window-y="0"
     inkscape:window-maximized="0"
     inkscape:current-layer="svg2" /><metadata
     id="metadata8"><rdf:RDF><cc:Work
         rdf:about=""><dc:format>image/svg+xml</dc:format><dc:type
           rdf:resource="http://purl.org/dc/dcmitype/StillImage" /><dc:title /></cc:Work></rdf:RDF></metadata><defs
     id="defs6"><clipPath
       id="clipPath16"><path
         d="M 0,300 400,300 400,0 0,0 0,300 z"
         inkscape:connector-curvature="0"
         id="path18" /></clipPath><clipPath
       id="clipPath24"><path
         d="M 0,300 400,300 400,0 0,0 0,300 z"
         inkscape:connector-curvature="0"
         id="path26" /></clipPath></defs><g
     transform="matrix(1.25,0,0,-1.25,0,375)"
     id="g10"><g
       id="g12"><g
         clip-path="url(#clipPath16)"
         id="g14"><g
           transform="translate(91.2815,253.5208)"
           id="g114"><path
             d="M 0,0 3.787,6.325 C 3.342,6.517 2.87,6.655 2.355,6.655 0.279,6.655 -1.404,4.972 -1.404,2.896 -1.404,1.72 -0.847,0.688 0,0"
             inkscape:connector-curvature="0"
             id="path116"
             style="fill:#373535;fill-opacity:1;fill-rule:nonzero;stroke:none" /></g><g
           transform="translate(112.8173,231.6013)"
           id="g118"><path
             d="m 0,0 c -0.23,-0.345 -0.696,-0.437 -1.04,-0.207 -0.345,0.23 -0.437,0.696 -0.207,1.04 0.23,0.344 0.695,0.437 1.04,0.207 C 0.137,0.81 0.23,0.344 0,0 m -2.322,-4.729 c -0.23,-0.345 -0.695,-0.437 -1.04,-0.207 -0.344,0.23 -0.437,0.695 -0.207,1.04 0.23,0.344 0.696,0.437 1.04,0.207 0.345,-0.23 0.437,-0.696 0.207,-1.04 m -2.387,5.297 c -0.344,0.23 -0.437,0.696 -0.207,1.041 0.23,0.344 0.696,0.437 1.041,0.207 0.344,-0.23 0.437,-0.696 0.207,-1.04 -0.23,-0.345 -0.696,-0.438 -1.041,-0.208 m -0.508,-3.364 c -0.23,-0.344 -0.695,-0.437 -1.04,-0.207 -0.344,0.23 -0.437,0.696 -0.207,1.04 0.23,0.345 0.696,0.438 1.04,0.207 0.345,-0.23 0.437,-0.695 0.207,-1.04 m -0.584,-5.889 c -0.23,-0.344 -0.696,-0.437 -1.04,-0.207 -0.345,0.23 -0.437,0.696 -0.207,1.04 0.23,0.344 0.695,0.437 1.04,0.207 0.344,-0.23 0.437,-0.695 0.207,-1.04 m -2.384,8.291 c -1.115,-1.671 -2.982,-2.669 -4.992,-2.669 -1.188,0 -2.338,0.35 -3.329,1.012 -2.751,1.837 -3.493,5.569 -1.657,8.32 1.116,1.672 2.983,2.669 4.995,2.669 1.186,0 2.336,-0.35 3.327,-1.01 2.75,-1.839 3.493,-5.573 1.656,-8.322 m 0.262,-5.199 c -0.23,-0.345 -0.695,-0.437 -1.04,-0.207 -0.344,0.23 -0.437,0.695 -0.207,1.04 0.23,0.344 0.696,0.437 1.04,0.207 0.345,-0.23 0.438,-0.696 0.207,-1.04 M 4.158,3.221 3.15,3.894 c -0.196,3.273 -1.365,6.464 -3.426,9.105 l -2.636,-0.339 0.182,0.273 c 0.688,1.029 0.408,2.433 -0.621,3.121 l -1.469,0.981 c -1.029,0.687 -2.433,0.407 -3.12,-0.622 l -0.207,-0.309 -1.17,7 -7.114,4.421 -3.815,-6.372 1.871,-1.045 -13.579,1.721 -1.965,-2.941 8.191,-5.471 c -0.369,-0.443 -0.725,-0.901 -1.052,-1.391 -0.327,-0.49 -0.614,-0.994 -0.882,-1.504 l -8.19,5.471 -1.965,-2.942 10.609,-18.566 0.018,0.029 c 0.213,-0.356 0.449,-0.7 0.689,-1.042 l 3.541,0.455 -0.658,-0.984 c -0.687,-1.029 -0.407,-2.433 0.622,-3.121 l 1.469,-0.981 c 1.029,-0.687 2.433,-0.408 3.12,0.621 l 0.549,0.822 0.403,-3.136 c 3.084,-0.837 6.315,-0.726 9.293,0.229 l 1.202,-0.802 c 3.287,1.159 6.241,3.353 8.326,6.474 2.086,3.122 2.981,6.691 2.792,10.172"
             inkscape:connector-curvature="0"
             id="path120"
             style="fill:#373535;fill-opacity:1;fill-rule:nonzero;stroke:none" /></g><g
           transform="translate(102.1424,238.2809)"
           id="g122"><path
             d="m 0,0 c -0.743,0.497 -1.605,0.759 -2.493,0.759 -1.51,0 -2.911,-0.749 -3.747,-2.001 -1.378,-2.064 -0.82,-4.863 1.242,-6.24 0.743,-0.497 1.606,-0.761 2.495,-0.761 1.509,0 2.909,0.749 3.745,2.001 C 2.621,-4.178 2.063,-1.378 0,0"
             inkscape:connector-curvature="0"
             id="path124"
             style="fill:#373535;fill-opacity:1;fill-rule:nonzero;stroke:none" /></g></g></g></g></svg>