<?xml version="1.0" encoding="UTF-8" standalone="no"?>
<svg
   xmlns:dc="http://purl.org/dc/elements/1.1/"
   xmlns:cc="http://creativecommons.org/ns#"
   xmlns:rdf="http://www.w3.org/1999/02/22-rdf-syntax-ns#"
   xmlns:svg="http://www.w3.org/2000/svg"
   xmlns="http://www.w3.org/2000/svg"
   xmlns:sodipodi="http://sodipodi.sourceforge.net/DTD/sodipodi-0.dtd"
   xmlns:inkscape="http://www.inkscape.org/namespaces/inkscape"
   width="500pt"
   height="500pt"
   viewBox="0 0 500 500"
   version="1.1"
   id="svg2442"
   sodipodi:version="0.32"
   inkscape:version="0.46"
   sodipodi:docname="Gravemind.svg"
   inkscape:output_extension="org.inkscape.output.svg.inkscape">
  <metadata
     id="metadata2457">
    <rdf:RDF>
      <cc:Work
         rdf:about="">
        <dc:format>image/svg+xml</dc:format>
        <dc:type
           rdf:resource="http://purl.org/dc/dcmitype/StillImage" />
      </cc:Work>
    </rdf:RDF>
  </metadata>
  <defs
     id="defs2455">
    <inkscape:perspective
       sodipodi:type="inkscape:persp3d"
       inkscape:vp_x="0 : 312.5 : 1"
       inkscape:vp_y="0 : 1000 : 0"
       inkscape:vp_z="625 : 312.5 : 1"
       inkscape:persp3d-origin="312.5 : 208.33333 : 1"
       id="perspective2459" />
  </defs>
  <sodipodi:namedview
     inkscape:window-height="712"
     inkscape:window-width="1024"
     inkscape:pageshadow="2"
     inkscape:pageopacity="0.0"
     guidetolerance="10.0"
     gridtolerance="10.0"
     objecttolerance="10.0"
     borderopacity="1.0"
     bordercolor="#666666"
     pagecolor="#ffffff"
     id="base"
     showgrid="false"
     inkscape:zoom="0.7392"
     inkscape:cx="312.5"
     inkscape:cy="312.5"
     inkscape:window-x="-4"
     inkscape:window-y="-4"
     inkscape:current-layer="svg2442" />
  <path
     fill="#000100"
     d=" M 0.00 0.00 L 500.00 0.00 L 500.00 500.00 L 0.00 500.00 L 0.00 0.00 Z"
     id="path2444"
     style="fill:#ffffff" />
  <path
     fill="#4b9900"
     d=" M 232.47 37.78 C 269.28 34.59 306.88 41.06 340.46 56.48 C 391.45 79.56 432.49 123.46 452.09 175.89 C 469.86 222.46 470.62 275.23 454.20 322.29 C 441.63 358.76 419.02 391.70 389.46 416.49 C 360.63 440.84 325.25 457.33 288.06 463.79 C 237.95 472.71 184.80 462.97 141.13 436.82 C 114.14 420.80 90.73 398.79 73.13 372.80 C 53.40 343.83 40.96 309.95 37.24 275.11 C 33.16 237.80 39.10 199.44 54.33 165.13 C 65.47 139.83 81.58 116.71 101.48 97.51 C 136.55 63.33 183.67 41.89 232.47 37.78 Z"
     id="path2446" />
  <path
     fill="#000100"
     d=" M 181.98 83.03 C 212.28 70.73 245.86 67.38 278.16 71.82 C 313.59 76.91 347.67 92.54 374.00 116.87 C 374.21 123.51 373.57 130.23 374.31 136.82 C 386.80 150.52 397.26 166.15 404.69 183.16 C 419.06 215.49 422.75 252.42 415.11 286.96 C 408.81 316.06 394.46 343.28 374.32 365.17 C 373.58 372.08 374.18 379.13 374.03 386.10 C 342.73 415.01 300.59 431.68 258.05 432.91 C 210.83 435.02 162.77 418.28 127.98 386.12 C 127.82 379.16 128.40 372.12 127.70 365.20 C 115.22 351.49 104.75 335.87 97.32 318.85 C 83.79 288.40 79.69 253.87 85.69 221.09 C 91.03 191.39 104.55 163.19 124.47 140.52 C 125.77 138.83 128.10 137.50 127.98 135.10 C 128.06 129.02 127.96 122.94 128.01 116.86 C 143.61 102.28 162.23 91.05 181.98 83.03 Z"
     id="path2448"
     style="fill:#ffffff" />
  <path
     fill="#4b9900"
     d=" M 208.07 141.00 C 237.36 141.00 266.64 141.00 295.93 141.00 C 310.51 167.11 324.45 193.59 338.49 220.01 C 334.32 227.55 330.02 235.02 325.90 242.60 C 342.33 252.03 358.74 261.50 375.12 271.02 C 368.91 281.66 362.73 292.32 356.64 303.04 C 340.62 293.83 324.65 284.54 308.63 275.35 C 307.29 274.19 306.82 276.49 306.20 277.22 C 302.87 283.20 299.43 289.12 295.93 295.00 C 287.29 295.00 278.65 294.99 270.01 295.01 C 269.99 319.00 270.01 343.00 270.00 367.00 C 258.00 367.00 246.00 367.00 234.00 367.00 C 233.99 343.00 234.01 319.00 233.99 295.01 C 225.35 294.99 216.71 295.00 208.07 295.00 C 204.00 288.34 200.33 281.44 196.25 274.78 C 179.98 284.25 163.66 293.63 147.36 303.04 C 141.28 292.32 135.09 281.66 128.88 271.02 C 145.26 261.50 161.68 252.03 178.11 242.59 C 173.97 235.03 169.68 227.55 165.51 220.01 C 179.55 193.59 193.49 167.11 208.07 141.00 Z"
     id="path2450" />
  <path
     fill="#000100"
     d=" M 230.03 178.00 C 244.68 177.99 259.32 177.99 273.97 178.00 C 281.34 191.99 288.66 205.99 295.98 220.00 C 289.34 231.33 282.71 242.67 276.09 254.01 C 275.03 255.48 274.32 258.05 272.10 257.97 C 258.71 258.03 245.31 258.03 231.92 257.97 C 230.25 258.18 229.43 256.46 228.68 255.31 C 221.79 243.53 214.91 231.76 208.02 219.99 C 215.35 205.99 222.66 191.98 230.03 178.00 Z"
     id="path2452"
     style="fill:#ffffff" />
</svg>
