<?xml version="1.0" encoding="UTF-8" standalone="no"?>
<svg
   xmlns:dc="http://purl.org/dc/elements/1.1/"
   xmlns:cc="http://creativecommons.org/ns#"
   xmlns:rdf="http://www.w3.org/1999/02/22-rdf-syntax-ns#"
   xmlns:svg="http://www.w3.org/2000/svg"
   xmlns="http://www.w3.org/2000/svg"
   xmlns:sodipodi="http://sodipodi.sourceforge.net/DTD/sodipodi-0.dtd"
   xmlns:inkscape="http://www.inkscape.org/namespaces/inkscape"
   width="500pt"
   height="500pt"
   viewBox="0 0 500 500"
   version="1.1"
   id="svg2500"
   sodipodi:version="0.32"
   inkscape:version="0.46"
   sodipodi:docname="Mendicant Bias.svg"
   inkscape:output_extension="org.inkscape.output.svg.inkscape">
  <metadata
     id="metadata2515">
    <rdf:RDF>
      <cc:Work
         rdf:about="">
        <dc:format>image/svg+xml</dc:format>
        <dc:type
           rdf:resource="http://purl.org/dc/dcmitype/StillImage" />
      </cc:Work>
    </rdf:RDF>
  </metadata>
  <defs
     id="defs2513">
    <inkscape:perspective
       sodipodi:type="inkscape:persp3d"
       inkscape:vp_x="0 : 312.5 : 1"
       inkscape:vp_y="0 : 1000 : 0"
       inkscape:vp_z="625 : 312.5 : 1"
       inkscape:persp3d-origin="312.5 : 208.33333 : 1"
       id="perspective2517" />
  </defs>
  <sodipodi:namedview
     inkscape:window-height="667"
     inkscape:window-width="640"
     inkscape:pageshadow="2"
     inkscape:pageopacity="0.0"
     guidetolerance="10.0"
     gridtolerance="10.0"
     objecttolerance="10.0"
     borderopacity="1.0"
     bordercolor="#666666"
     pagecolor="#ffffff"
     id="base"
     showgrid="false"
     inkscape:zoom="0.7392"
     inkscape:cx="312.5"
     inkscape:cy="312.5"
     inkscape:window-x="44"
     inkscape:window-y="58"
     inkscape:current-layer="svg2500" />
  <path
     fill="#010000"
     d=" M 0.00 0.00 L 500.00 0.00 L 500.00 500.00 L 0.00 500.00 L 0.00 0.00 Z"
     id="path2502"
     style="fill:#ffffff" />
  <path
     fill="#cb0100"
     d=" M 232.47 37.78 C 269.04 34.61 306.40 40.96 339.81 56.19 C 387.32 77.54 426.39 116.86 447.40 164.52 C 467.73 209.78 471.55 262.17 458.06 309.91 C 447.84 346.68 427.56 380.60 400.01 407.01 C 372.34 433.69 337.36 452.69 299.91 461.37 C 249.09 473.41 193.99 465.97 148.20 440.84 C 126.19 428.86 106.27 413.02 89.73 394.20 C 64.99 366.23 47.78 331.68 40.35 295.09 C 32.14 255.24 35.60 213.08 50.21 175.10 C 63.04 141.51 84.46 111.22 111.94 88.02 C 145.61 59.30 188.38 41.53 232.47 37.78 Z"
     id="path2504" />
  <path
     fill="#010000"
     d=" M 211.95 73.93 C 247.82 66.55 285.96 69.29 320.00 83.02 C 339.76 91.04 358.36 102.29 373.99 116.83 C 374.22 123.48 373.55 130.22 374.32 136.82 C 386.63 150.36 397.00 165.75 404.40 182.52 C 418.15 213.13 422.35 247.92 416.31 280.93 C 410.72 311.99 396.17 341.42 374.73 364.59 C 373.71 365.79 374.10 367.51 373.97 368.96 C 374.02 374.69 373.97 380.42 374.02 386.15 C 340.92 416.61 295.90 433.46 250.98 433.01 C 206.04 433.45 160.99 416.57 127.90 386.08 C 128.06 379.70 128.03 373.31 127.98 366.93 C 128.11 364.54 125.82 363.19 124.51 361.52 C 101.88 335.83 87.58 303.00 83.96 268.97 C 78.67 221.82 94.62 172.70 126.89 137.87 C 128.29 136.63 127.94 134.62 128.03 132.95 C 127.98 127.57 128.00 122.20 128.02 116.82 C 151.41 95.28 180.89 80.53 211.95 73.93 Z"
     id="path2506"
     style="fill:#ffffff" />
  <path
     fill="#cb0100"
     d=" M 207.07 179.99 C 236.69 180.00 266.31 180.00 295.93 179.99 C 310.52 206.11 324.45 232.59 338.50 259.01 C 332.33 270.01 326.21 281.04 319.98 292.01 C 304.62 291.98 289.26 292.03 273.90 291.98 C 266.09 305.86 258.68 319.97 251.16 334.02 C 236.46 333.99 221.77 334.00 207.07 334.01 C 192.50 309.23 178.56 284.09 164.50 259.01 C 178.55 232.59 192.48 206.12 207.07 179.99 Z"
     id="path2508" />
  <path
     fill="#cb0100"
     d=" M 277.39 299.16 C 289.92 298.92 302.46 299.09 314.99 299.07 C 320.82 310.11 326.95 321.00 332.61 332.13 L 332.69 332.86 C 326.89 343.23 321.24 353.75 315.02 363.85 C 302.42 364.06 289.81 363.96 277.20 363.89 C 271.18 353.56 265.60 342.97 259.40 332.77 C 265.31 321.52 271.40 310.37 277.39 299.16 Z"
     id="path2510" />
</svg>
