<?xml version="1.0" encoding="UTF-8" ?>
<!DOCTYPE svg PUBLIC "-//W3C//DTD SVG 1.1//EN" "http://www.w3.org/Graphics/SVG/1.1/DTD/svg11.dtd">
<svg width="500pt" height="500pt" viewBox="0 0 500 500" version="1.1" xmlns="http://www.w3.org/2000/svg">
<path fill="#ffffff" d=" M 0.00 0.00 L 500.00 0.00 L 500.00 500.00 L 0.00 500.00 L 0.00 0.00 Z" />
<path fill="#00cdce" d=" M 230.45 22.60 C 285.62 17.36 342.69 33.30 386.15 67.86 C 415.13 90.92 439.85 120.02 455.04 153.98 C 468.23 182.71 474.15 214.48 474.10 246.00 C 475.36 297.81 456.87 349.80 423.21 389.20 C 396.44 420.76 361.98 446.56 322.39 459.48 C 263.93 478.48 197.37 474.55 143.12 444.82 C 90.95 415.47 48.68 366.34 33.06 307.99 C 18.23 251.70 23.20 189.20 52.17 138.11 C 84.43 81.80 140.47 37.66 205.00 26.02 C 213.44 24.59 221.92 23.35 230.45 22.60 Z" />
<path fill="#ffffff" d=" M 194.25 68.41 C 239.34 55.15 289.67 57.97 331.88 79.22 C 347.23 86.35 360.64 96.77 373.89 107.14 C 373.97 115.43 374.01 123.71 374.03 132.00 C 392.00 151.63 406.17 175.14 412.95 201.01 C 424.55 244.95 419.65 293.79 396.01 333.01 C 390.21 342.90 382.68 351.58 375.52 360.47 C 372.08 368.40 376.10 378.12 373.05 386.09 C 356.56 400.48 337.49 411.89 317.28 420.26 C 266.15 439.03 206.49 436.50 158.88 409.18 C 147.23 402.49 136.51 394.39 126.19 385.83 C 125.84 378.33 126.90 370.64 125.55 363.24 C 118.83 352.28 109.13 343.37 103.08 331.94 C 89.63 309.63 82.00 284.02 80.86 258.01 C 76.97 214.97 91.83 170.72 120.52 138.48 C 129.72 130.78 124.78 117.37 126.19 107.10 C 145.97 89.81 168.95 75.89 194.25 68.41 Z" />
<path fill="#00cdce" d=" M 254.13 160.06 C 276.08 159.93 298.02 159.98 319.98 160.02 C 320.04 176.01 320.03 192.01 319.98 208.01 C 301.99 207.93 284.00 208.04 266.02 208.01 C 258.11 220.86 250.62 233.97 242.94 246.97 C 252.74 261.58 262.51 276.22 272.17 290.93 C 288.12 290.95 304.06 291.08 320.01 291.00 C 320.01 302.99 320.00 314.99 320.00 326.98 C 264.66 327.01 209.33 327.01 154.00 326.99 C 153.99 314.99 153.99 303.00 154.00 291.02 C 177.76 290.91 201.51 291.14 225.27 290.89 C 221.52 282.91 217.52 275.06 213.68 267.13 C 193.79 266.95 173.90 266.97 154.01 267.00 C 153.97 254.00 153.99 241.00 154.00 228.00 C 173.98 228.01 193.96 228.00 213.94 227.97 C 227.53 205.45 240.51 182.57 254.13 160.06 Z" />
</svg>
