<?xml version="1.0" encoding="UTF-8" standalone="no"?>
<!-- Created with Inkscape (http://www.inkscape.org/) -->

<svg
   xmlns:dc="http://purl.org/dc/elements/1.1/"
   xmlns:cc="http://creativecommons.org/ns#"
   xmlns:rdf="http://www.w3.org/1999/02/22-rdf-syntax-ns#"
   xmlns:svg="http://www.w3.org/2000/svg"
   xmlns="http://www.w3.org/2000/svg"
   xmlns:inkscape="http://www.inkscape.org/namespaces/inkscape"
   version="1.1"
   width="500"
   height="375"
   id="svg2"
   xml:space="preserve"><metadata
     id="metadata8"><rdf:RDF><cc:Work
         rdf:about=""><dc:format>image/svg+xml</dc:format><dc:type
           rdf:resource="http://purl.org/dc/dcmitype/StillImage" /></cc:Work></rdf:RDF></metadata><defs
     id="defs6"><clipPath
       id="clipPath16"><path
         d="M 0,300 400,300 400,0 0,0 0,300 z"
         inkscape:connector-curvature="0"
         id="path18" /></clipPath><clipPath
       id="clipPath24"><path
         d="M 0,300 400,300 400,0 0,0 0,300 z"
         inkscape:connector-curvature="0"
         id="path26" /></clipPath></defs><g
     transform="matrix(1.25,0,0,-1.25,0,375)"
     id="g10"><g
       id="g12"><g
         clip-path="url(#clipPath16)"
         id="g14"><g
           id="g20"><g
             id="g22" /><g
             id="g28"><g
               clip-path="url(#clipPath24)"
               id="g30"
               style="opacity:0.30000299"><path
                 d="M 400,0 0,0 0,300 400,300 400,0 z"
                 inkscape:connector-curvature="0"
                 id="path32"
                 style="fill:#ffffff;fill-opacity:1;fill-rule:nonzero;stroke:none" /></g></g></g><g
           transform="translate(192.4998,171.9755)"
           id="g34"><path
             d="m 0,0 c 3.313,0 6,-2.687 6,-6 0,-3.314 -2.687,-6 -6,-6 -3.314,0 -6,2.686 -6,6 0,3.313 2.686,6 6,6 m 28.462,-15.75 c -0.046,1.282 -0.192,2.537 -0.457,3.75 l -8.505,0 0,1.5 3,0 0,1.5 -6,0 0,1.5 4.5,0 0,1.5 -1.5,0 0,1.5 -3,0 0,1.5 1.5,0 0,1.5 -3,0 0,1.5 1.5,0 0,1.5 0,0.952 C 13.77,3.751 10.726,4.5 7.5,4.5 -3.845,4.5 -13.064,-4.502 -13.462,-15.75 l 41.924,0 z"
             inkscape:connector-curvature="0"
             id="path36"
             style="fill:#373535;fill-opacity:1;fill-rule:nonzero;stroke:none" /></g><g
           transform="translate(204.4998,135.9755)"
           id="g38"><path
             d="m 0,0 -1.5,0 0,1.5 4.5,0 0,1.5 1.5,0 0,1.5 4.5,0 0,1.5 1.5,0 0,1.5 -3,0 0,1.5 -4.5,0 0,1.5 3,0 0,1.5 6,0 0,1.5 -3,0 0,1.5 7.005,0 c 0.265,1.213 0.411,2.468 0.457,3.75 l -41.924,0 C -25.064,7.501 -15.845,-1.5 -4.5,-1.5 c 1.547,0 3.05,0.179 4.5,0.495 L 0,0 z"
             inkscape:connector-curvature="0"
             id="path40"
             style="fill:#373535;fill-opacity:1;fill-rule:nonzero;stroke:none" /></g><g
           transform="translate(197.5,57.5252)"
           id="g42"><path
             d="m 0,0 c -0.415,0 -0.75,-0.335 -0.75,-0.75 l 0,-4.5 C -0.75,-5.665 -0.415,-6 0,-6 c 0.415,0 0.75,0.335 0.75,0.75 l 0,4.5 C 0.75,-0.335 0.415,0 0,0"
             inkscape:connector-curvature="0"
             id="path44"
             style="fill:#373535;fill-opacity:1;fill-rule:nonzero;stroke:none" /></g><g
           transform="translate(203.5,57.5252)"
           id="g46"><path
             d="m 0,0 c -0.415,0 -0.75,-0.335 -0.75,-0.75 l 0,-4.5 C -0.75,-5.665 -0.415,-6 0,-6 c 0.415,0 0.75,0.335 0.75,0.75 l 0,4.5 C 0.75,-0.335 0.415,0 0,0"
             inkscape:connector-curvature="0"
             id="path48"
             style="fill:#373535;fill-opacity:1;fill-rule:nonzero;stroke:none" /></g><g
           transform="translate(217,82.2752)"
           id="g50"><path
             d="m 0,0 0,1.5 c 0,4.95 -4.109,9 -9.129,9 l -7.371,0 -7.371,0 C -28.891,10.5 -33,6.45 -33,1.5 L -33,0 -16.5,0 0,0 z"
             inkscape:connector-curvature="0"
             id="path52"
             style="fill:#373535;fill-opacity:1;fill-rule:nonzero;stroke:none" /></g><g
           transform="translate(211,71.7752)"
           id="g54"><path
             d="M 0,0 C -3,0 -9,6 -9,6 L 3,6 C 3,6 3,0 0,0 m -3,-7.5 0,1.5 2.572,-0.813 C -0.179,-6.863 0,-7.034 0,-7.2 0,-7.365 -0.179,-7.5 -0.428,-7.5 L -3,-7.5 z M -0.75,-18 c -1.242,0 -2.25,1.008 -2.25,2.25 0,1.242 1.008,2.25 2.25,2.25 1.242,0 2.25,-1.008 2.25,-2.25 C 1.5,-16.992 0.492,-18 -0.75,-18 M -4.5,-7.001 c -0.152,0.053 -0.311,0.103 -0.445,0.169 -0.832,0.409 -1.679,0.86 -2.555,1.223 l 0,2.643 c 0.984,-0.412 1.935,-1.04 3,-1.956 l 0,-2.079 z M -9,-5.109 c -0.489,0.117 -0.987,0.187 -1.5,0.187 -0.513,0 -1.011,-0.07 -1.5,-0.187 l 0,2.598 c 0.475,0.094 0.97,0.153 1.5,0.175 0.53,-0.022 1.025,-0.081 1.5,-0.175 l 0,-2.598 z M -21,0 c -3,0 -3,6 -3,6 l 12,0 c 0,0 -6,-6 -9,-6 m 7.5,-5.609 c -0.876,-0.363 -1.723,-0.814 -2.555,-1.223 -0.134,-0.066 -0.293,-0.116 -0.445,-0.169 l 0,2.079 c 1.065,0.916 2.016,1.544 3,1.956 l 0,-2.643 z M -18,-7.5 l -2.572,0 c -0.249,0 -0.428,0.135 -0.428,0.3 0,0.166 0.179,0.337 0.428,0.387 L -18,-6 -18,-7.5 z M -20.25,-18 c -1.242,0 -2.25,1.008 -2.25,2.25 0,1.242 1.008,2.25 2.25,2.25 1.242,0 2.25,-1.008 2.25,-2.25 0,-1.242 -1.008,-2.25 -2.25,-2.25 M 7.5,-1.5 7.5,6 c 0,0 0,1.5 -1.5,1.5 L 6,9 -10.5,9 -27,9 -27,7.5 C -28.5,7.5 -28.5,6 -28.5,6 l 0,-7.5 c -1.903,-0.842 -3,-2.413 -3,-4.5 0,-2.788 4.469,-6.694 4.469,-7.5 0,-4.5 3.11,-7.5 7.647,-7.5 1.659,0 3.181,0.526 4.405,1.396 -0.003,0.037 -0.021,0.067 -0.021,0.104 l 0,4.5 c 0,0.828 0.674,1.5 1.5,1.5 0.669,0 1.217,-0.448 1.409,-1.055 l 0.091,0 0,0.305 c 0,0.828 0.674,1.5 1.5,1.5 0.826,0 1.5,-0.672 1.5,-1.5 l 0,-0.305 0.091,0 c 0.192,0.607 0.74,1.055 1.409,1.055 0.826,0 1.5,-0.672 1.5,-1.5 l 0,-4.5 c 0,-0.037 -0.018,-0.067 -0.021,-0.104 1.224,-0.87 2.746,-1.396 4.405,-1.396 4.537,0 7.647,3 7.647,7.5 0,0.806 4.469,4.712 4.469,7.5 0,2.087 -1.097,3.658 -3,4.5"
             inkscape:connector-curvature="0"
             id="path56"
             style="fill:#373535;fill-opacity:1;fill-rule:nonzero;stroke:none" /></g><g
           transform="translate(200.5,58.2752)"
           id="g58"><path
             d="m 0,0 c -0.415,0 -0.75,-0.335 -0.75,-0.75 l 0,-6 c 0,-0.415 0.335,-0.75 0.75,-0.75 0.415,0 0.75,0.335 0.75,0.75 l 0,6 C 0.75,-0.335 0.415,0 0,0"
             inkscape:connector-curvature="0"
             id="path60"
             style="fill:#373535;fill-opacity:1;fill-rule:nonzero;stroke:none" /></g><g
           transform="translate(354.7718,142.7768)"
           id="g62"><path
             d="m 0,0 c -0.089,-0.035 -0.181,-0.051 -0.272,-0.051 -0.3,0 -0.584,0.181 -0.698,0.477 l -5.455,14.012 c -1.442,3.604 -3.225,5.011 -6.358,5.011 -2.079,0 -3.822,-1.289 -3.839,-1.303 -0.925,-0.694 -2.374,-0.691 -3.3,0 -0.015,0.014 -1.776,1.303 -3.839,1.303 -3.132,0 -4.916,-1.407 -6.36,-5.017 L -35.573,0.426 C -35.723,0.041 -36.16,-0.151 -36.544,0 -36.93,0.149 -37.121,0.584 -36.97,0.971 l 5.454,14.011 c 1.673,4.184 3.992,5.967 7.755,5.967 2.574,0 4.652,-1.537 4.739,-1.601 0.393,-0.296 1.108,-0.296 1.499,0 0.088,0.064 2.167,1.601 4.74,1.601 3.763,0 6.082,-1.783 7.753,-5.961 L 0.427,0.971 C 0.577,0.584 0.386,0.149 0,0 m -9.272,11.199 -6,0 c -0.825,0 -1.5,0.337 -1.5,0.75 l 0,2.25 c 0,0.825 0.564,1.871 1.253,2.324 0,0 1.026,0.676 2.497,0.676 2.9,0 4.325,-1.82 4.325,-1.82 0.509,-0.649 0.925,-1.855 0.925,-2.68 0,-0.825 -0.675,-1.5 -1.5,-1.5 m 0,-14.625 c -0.622,0 -1.125,0.503 -1.125,1.125 0,0.622 0.503,1.125 1.125,1.125 0.622,0 1.125,-0.503 1.125,-1.125 0,-0.622 -0.503,-1.125 -1.125,-1.125 m -3,1.125 -1.5,0 0,4.5 1.5,-1.5 0,-3 z m -3,0 -2.25,0 0,6 2.25,0 0,-6 z m -5.25,7.5 0,2.25 c 0,1.243 1.008,2.25 2.25,2.25 1.243,0 2.25,-1.007 2.25,-2.25 l 0,-2.25 -4.5,0 z m 1.5,-7.5 -2.25,0 0,6 2.25,0 0,-6 z m -3.75,0 -1.5,0 0,3 1.5,1.5 0,-4.5 z m -6,15 c 0,0.825 0.416,2.031 0.925,2.68 0,0 1.426,1.82 4.325,1.82 1.471,0 2.497,-0.676 2.497,-0.676 0.689,-0.453 1.253,-1.499 1.253,-2.324 l 0,-2.25 c 0,-0.413 -0.675,-0.75 -1.5,-0.75 l -6,0 c -0.825,0 -1.5,0.675 -1.5,1.5 m 1.5,-16.125 c -0.622,0 -1.125,0.503 -1.125,1.125 0,0.622 0.503,1.125 1.125,1.125 0.622,0 1.125,-0.503 1.125,-1.125 0,-0.622 -0.503,-1.125 -1.125,-1.125 m 24,19.725 0,5.4 c 0,6.6 -5.4,12 -12,12 l -6,0 c -6.6,0 -12,-5.4 -12,-12 l 0,-5.4 -6,-15.6 c 0,-3 9.402,-9 21,-9 11.598,0 21,6 21,9 l -6,15.6 z"
             inkscape:connector-curvature="0"
             id="path64"
             style="fill:#373535;fill-opacity:1;fill-rule:nonzero;stroke:none" /></g><g
           transform="translate(300.4561,237.6759)"
           id="g66"><path
             d="M 0,0 C -0.829,0 -1.5,-0.671 -1.5,-1.5 -1.5,-2.329 -0.829,-3 0,-3 0.829,-3 1.5,-2.329 1.5,-1.5 1.5,-0.671 0.829,0 0,0"
             inkscape:connector-curvature="0"
             id="path68"
             style="fill:#373535;fill-opacity:1;fill-rule:nonzero;stroke:none" /></g><g
           transform="translate(309.4561,237.6759)"
           id="g70"><path
             d="M 0,0 C -0.829,0 -1.5,-0.671 -1.5,-1.5 -1.5,-2.329 -0.829,-3 0,-3 0.829,-3 1.5,-2.329 1.5,-1.5 1.5,-0.671 0.829,0 0,0"
             inkscape:connector-curvature="0"
             id="path72"
             style="fill:#373535;fill-opacity:1;fill-rule:nonzero;stroke:none" /></g><g
           transform="translate(315.9029,228.7521)"
           id="g74"><path
             d="m 0,0 c -1.036,-1.601 -7.976,-7.576 -10.947,-7.576 -2.971,0 -9.911,5.975 -10.942,7.569 -0.686,1.117 -0.954,4.12 -1.05,7.079 0.01,0.118 0.036,0.231 0.036,0.352 l 0,6 c 0,0.085 0.011,0.167 0.013,0.252 0.778,-0.16 1.587,-0.252 2.422,-0.252 4.282,0 7.956,2.226 9.565,5.408 1.609,-3.182 5.284,-5.408 9.565,-5.408 0.835,0 1.644,0.092 2.422,0.252 0.002,-0.085 0.013,-0.167 0.013,-0.252 0,-0.166 -0.018,-0.327 -0.025,-0.492 C 1.116,9.832 1.208,1.969 0,0 m 5.597,19.424 c -0.553,0 -1.077,-0.115 -1.567,-0.299 -0.677,6.892 -7.099,12.299 -14.933,12.299 -7.834,0 -14.256,-5.407 -14.933,-12.299 -0.49,0.184 -1.014,0.299 -1.567,0.299 -2.475,0 -4.5,-2.025 -4.5,-4.5 l 0,-7.5 c 0,-2.475 2.025,-4.5 4.5,-4.5 0.601,0 1.174,0.124 1.7,0.34 0.243,-2.336 0.652,-3.854 1.256,-4.84 1.158,-1.79 8.887,-9 13.5,-9 4.614,0 12.346,7.216 13.466,8.947 0.628,1.023 1.047,2.567 1.293,4.928 0.549,-0.239 1.151,-0.375 1.785,-0.375 2.475,0 4.5,2.025 4.5,4.5 l 0,7.5 c 0,2.475 -2.025,4.5 -4.5,4.5"
             inkscape:connector-curvature="0"
             id="path76"
             style="fill:#373535;fill-opacity:1;fill-rule:nonzero;stroke:none" /></g><g
           transform="translate(221.5,239.9259)"
           id="g78"><path
             d="m 0,0 0,3 c 0,0.412 -0.337,0.75 -0.75,0.75 l -1.475,0 C -4.757,15.534 -13.371,18.902 -18,19.864 l 0,-2.289 c 4.94,-1.143 14.25,-5.375 14.25,-21.064 0,-0.409 -0.066,-9.93 -4.928,-15.261 l 5.678,0 0,5.798 c 0.724,2.274 1.1,4.481 1.294,6.202 l 0.956,0 C -0.337,-6.75 0,-6.412 0,-6 l 0,3 c 0,0.412 -0.337,0.75 -0.75,0.75 l -0.782,0 c -0.016,0.511 -0.038,1.012 -0.072,1.5 l 0.854,0 C -0.337,-0.75 0,-0.412 0,0 m -10.125,-5.18 0,5.896 C -9.433,-0.075 -9,-1.098 -9,-2.232 -9,-3.365 -9.433,-4.388 -10.125,-5.18 m -0.75,-0.693 c -0.643,-0.465 -1.414,-0.751 -2.25,-0.821 l 0,3.038 c 0.642,0.17 1.125,0.729 1.125,1.424 0,0.696 -0.483,1.255 -1.125,1.425 l 0,3.038 c 0.836,-0.071 1.607,-0.356 2.25,-0.821 l 0,-7.283 z m -3,5.066 C -14.517,-0.977 -15,-1.536 -15,-2.232 c 0,-0.695 0.483,-1.254 1.125,-1.424 l 0,-3.038 c -0.836,0.07 -1.607,0.356 -2.25,0.821 l 0,7.283 c 0.643,0.465 1.414,0.75 2.25,0.821 l 0,-3.038 z m -3,-4.373 c -0.692,0.792 -1.125,1.815 -1.125,2.948 0,1.134 0.433,2.157 1.125,2.948 l 0,-5.896 z M -21,-8.25 l -3,-1.5 3,3 3,-3 -3,1.5 z m -4.125,3.07 0,5.896 c 0.692,-0.791 1.125,-1.814 1.125,-2.948 0,-1.133 -0.433,-2.156 -1.125,-2.948 m -0.75,-0.693 c -0.643,-0.465 -1.414,-0.751 -2.25,-0.821 l 0,3.038 c 0.642,0.17 1.125,0.729 1.125,1.424 0,0.696 -0.483,1.255 -1.125,1.425 l 0,3.038 c 0.836,-0.071 1.607,-0.356 2.25,-0.821 l 0,-7.283 z m -3,5.066 C -29.517,-0.977 -30,-1.536 -30,-2.232 c 0,-0.695 0.483,-1.254 1.125,-1.424 l 0,-3.038 c -0.836,0.07 -1.607,0.356 -2.25,0.821 l 0,7.283 c 0.643,0.465 1.414,0.75 2.25,0.821 l 0,-3.038 z m -3,-4.373 c -0.692,0.792 -1.125,1.815 -1.125,2.948 0,1.134 0.433,2.157 1.125,2.948 l 0,-5.896 z M -18,15.296 l 0,-1.028 -6,0 0,1.028 c -4.377,-1.125 -12,-5.055 -12,-18.785 0,0 0.009,-7.343 3.201,-12.261 l 8.799,0 0,1.5 6,0 0,-1.5 8.799,0 C -6.009,-10.832 -6,-3.489 -6,-3.489 c 0,13.73 -7.623,17.66 -12,18.785 m -1.5,4.954 -3,0 0,-4.482 3,0 0,4.482 z m -4.5,-2.675 0,2.289 C -28.629,18.902 -37.243,15.534 -39.775,3.75 l -1.475,0 C -41.663,3.75 -42,3.412 -42,3 l 0,-3 c 0,-0.412 0.337,-0.75 0.75,-0.75 l 0.854,0 c -0.034,-0.488 -0.056,-0.989 -0.072,-1.5 l -0.782,0 C -41.663,-2.25 -42,-2.588 -42,-3 l 0,-3 c 0,-0.412 0.337,-0.75 0.75,-0.75 l 0.956,0 c 0.194,-1.721 0.57,-3.928 1.294,-6.202 l 0,-5.798 5.678,0 c -4.861,5.331 -4.928,14.852 -4.928,15.261 0,15.689 9.31,19.921 14.25,21.064 m -7.5,-34.998 c 0,0 7.5,-4.327 10.5,-4.327 4.5,0 10.5,4.327 10.5,4.327 0.052,0.055 0.096,0.117 0.147,0.173 l -21.294,0 c 0.051,-0.056 0.095,-0.118 0.147,-0.173"
             inkscape:connector-curvature="0"
             id="path80"
             style="fill:#373535;fill-opacity:1;fill-rule:nonzero;stroke:none" /></g><g
           transform="translate(113.9997,58.2754)"
           id="g82"><path
             d="m 0,0 0,18 c 0,1.656 -1.343,3 -3,3 l -3,0 0,-3 0,-3 0,-15 -3,-7.5 12,0 L 0,0 z"
             inkscape:connector-curvature="0"
             id="path84"
             style="fill:#373535;fill-opacity:1;fill-rule:nonzero;stroke:none" /></g><g
           transform="translate(84.0002,73.2752)"
           id="g86"><path
             d="M 0,0 0,3 0,6 -3,6 C -4.657,6 -6,4.657 -6,3 l 0,-18 -3,-7.5 12,0 -3,7.5 0,15 z"
             inkscape:connector-curvature="0"
             id="path88"
             style="fill:#373535;fill-opacity:1;fill-rule:nonzero;stroke:none" /></g><g
           transform="translate(96,90.5249)"
           id="g90"><path
             d="m 0,0 c 1.655,0 3,-1.345 3,-3 0,-1.655 -1.345,-3 -3,-3 -1.658,0 -3,1.345 -3,3 0,1.655 1.342,3 3,3 m 6,-5.25 c 0.829,0 1.5,-0.672 1.5,-1.5 0,-0.828 -0.671,-1.5 -1.5,-1.5 -0.829,0 -1.5,0.672 -1.5,1.5 0,0.828 0.671,1.5 1.5,1.5 m 4.45,-4.5 0.05,0 0,1.502 C 10.5,-2.451 5.798,2.25 0,2.25 c -5.798,0 -10.5,-4.701 -10.5,-10.498 l 0,-1.502 0.05,0 20.9,0 z"
             inkscape:connector-curvature="0"
             id="path92"
             style="fill:#373535;fill-opacity:1;fill-rule:nonzero;stroke:none" /></g><g
           transform="translate(100.4999,73.2752)"
           id="g94"><path
             d="m 0,0 -9,0 c -0.829,0 -1.5,0.672 -1.5,1.5 0,0.828 0.671,1.5 1.5,1.5 L 0,3 C 0.829,3 1.5,2.328 1.5,1.5 1.5,0.672 0.829,0 0,0 m 0,-6 -9,0 c -0.829,0 -1.5,0.671 -1.5,1.5 0,0.829 0.671,1.5 1.5,1.5 l 9,0 C 0.829,-3 1.5,-3.671 1.5,-4.5 1.5,-5.329 0.829,-6 0,-6 m 6,12 -21,0 0,-21 3,-3 15,0 3,3 0,21 z"
             inkscape:connector-curvature="0"
             id="path96"
             style="fill:#373535;fill-opacity:1;fill-rule:nonzero;stroke:none" /></g><g
           transform="translate(81.4994,159.9755)"
           id="g98"><path
             d="m 0,0 -32.999,0 0,-1.5 13.499,-2.399 0,-21.601 6,0 0,21.601 L 0,-1.5 0,0 z"
             inkscape:connector-curvature="0"
             id="path100"
             style="fill:#373535;fill-opacity:1;fill-rule:nonzero;stroke:none" /></g><g
           transform="translate(46.9999,155.3509)"
           id="g102"><path
             d="m 0,0 0,7.487 -0.026,0 0.026,10.637 3,0 c 0.829,0 1.5,0.671 1.5,1.5 0,0.829 -0.671,1.5 -1.5,1.5 l -6,0 c -0.829,0 -1.5,-0.671 -1.5,-1.5 0,-0.829 0.671,-1.5 1.5,-1.5 l 1.5,0 0,-10.637 C -2.37,7.176 -3,6.353 -3,5.375 l 0,-6 c 0,-1.243 1.008,-2.25 2.25,-2.25 0.117,0 0.231,0.017 0.346,0.035 l -1.096,-12.035 12.955,-6 2.045,0 C 13.5,-7.046 6.035,-0.88 0,0"
             inkscape:connector-curvature="0"
             id="path104"
             style="fill:#373535;fill-opacity:1;fill-rule:nonzero;stroke:none" /></g><g
           transform="translate(75.4936,170.4342)"
           id="g106"><path
             d="m 0,0 c 0.053,-0.771 -0.226,-1.556 -0.864,-2.145 -1.175,-1.086 -3.085,-1.086 -4.26,0 C -5.76,-1.556 -6.041,-0.771 -5.988,0 -4.28,-1.406 -1.711,-1.406 0,0 m 5.941,-7.459 c -0.665,8.555 -7.031,13.5 -16.435,13.5 -9.401,0 -15.77,-4.945 -16.432,-13.5 l 32.867,0 z"
             inkscape:connector-curvature="0"
             id="path108"
             style="fill:#373535;fill-opacity:1;fill-rule:nonzero;stroke:none" /></g><g
           transform="translate(83.011,155.3524)"
           id="g110"><path
             d="m 0,0 c -6.035,-0.874 -13.511,-7.038 -13.511,-20.877 l 2.047,0 12.952,6 L 0,0 z"
             inkscape:connector-curvature="0"
             id="path112"
             style="fill:#373535;fill-opacity:1;fill-rule:nonzero;stroke:none" /></g><g
           transform="translate(91.2815,253.5208)"
           id="g114"><path
             d="M 0,0 3.787,6.325 C 3.342,6.517 2.87,6.655 2.355,6.655 0.279,6.655 -1.404,4.972 -1.404,2.896 -1.404,1.72 -0.847,0.688 0,0"
             inkscape:connector-curvature="0"
             id="path116"
             style="fill:#373535;fill-opacity:1;fill-rule:nonzero;stroke:none" /></g><g
           transform="translate(112.8173,231.6013)"
           id="g118"><path
             d="m 0,0 c -0.23,-0.345 -0.696,-0.437 -1.04,-0.207 -0.345,0.23 -0.437,0.696 -0.207,1.04 0.23,0.344 0.695,0.437 1.04,0.207 C 0.137,0.81 0.23,0.344 0,0 m -2.322,-4.729 c -0.23,-0.345 -0.695,-0.437 -1.04,-0.207 -0.344,0.23 -0.437,0.695 -0.207,1.04 0.23,0.344 0.696,0.437 1.04,0.207 0.345,-0.23 0.437,-0.696 0.207,-1.04 m -2.387,5.297 c -0.344,0.23 -0.437,0.696 -0.207,1.041 0.23,0.344 0.696,0.437 1.041,0.207 0.344,-0.23 0.437,-0.696 0.207,-1.04 -0.23,-0.345 -0.696,-0.438 -1.041,-0.208 m -0.508,-3.364 c -0.23,-0.344 -0.695,-0.437 -1.04,-0.207 -0.344,0.23 -0.437,0.696 -0.207,1.04 0.23,0.345 0.696,0.438 1.04,0.207 0.345,-0.23 0.437,-0.695 0.207,-1.04 m -0.584,-5.889 c -0.23,-0.344 -0.696,-0.437 -1.04,-0.207 -0.345,0.23 -0.437,0.696 -0.207,1.04 0.23,0.344 0.695,0.437 1.04,0.207 0.344,-0.23 0.437,-0.695 0.207,-1.04 m -2.384,8.291 c -1.115,-1.671 -2.982,-2.669 -4.992,-2.669 -1.188,0 -2.338,0.35 -3.329,1.012 -2.751,1.837 -3.493,5.569 -1.657,8.32 1.116,1.672 2.983,2.669 4.995,2.669 1.186,0 2.336,-0.35 3.327,-1.01 2.75,-1.839 3.493,-5.573 1.656,-8.322 m 0.262,-5.199 c -0.23,-0.345 -0.695,-0.437 -1.04,-0.207 -0.344,0.23 -0.437,0.695 -0.207,1.04 0.23,0.344 0.696,0.437 1.04,0.207 0.345,-0.23 0.438,-0.696 0.207,-1.04 M 4.158,3.221 3.15,3.894 c -0.196,3.273 -1.365,6.464 -3.426,9.105 l -2.636,-0.339 0.182,0.273 c 0.688,1.029 0.408,2.433 -0.621,3.121 l -1.469,0.981 c -1.029,0.687 -2.433,0.407 -3.12,-0.622 l -0.207,-0.309 -1.17,7 -7.114,4.421 -3.815,-6.372 1.871,-1.045 -13.579,1.721 -1.965,-2.941 8.191,-5.471 c -0.369,-0.443 -0.725,-0.901 -1.052,-1.391 -0.327,-0.49 -0.614,-0.994 -0.882,-1.504 l -8.19,5.471 -1.965,-2.942 10.609,-18.566 0.018,0.029 c 0.213,-0.356 0.449,-0.7 0.689,-1.042 l 3.541,0.455 -0.658,-0.984 c -0.687,-1.029 -0.407,-2.433 0.622,-3.121 l 1.469,-0.981 c 1.029,-0.687 2.433,-0.408 3.12,0.621 l 0.549,0.822 0.403,-3.136 c 3.084,-0.837 6.315,-0.726 9.293,0.229 l 1.202,-0.802 c 3.287,1.159 6.241,3.353 8.326,6.474 2.086,3.122 2.981,6.691 2.792,10.172"
             inkscape:connector-curvature="0"
             id="path120"
             style="fill:#373535;fill-opacity:1;fill-rule:nonzero;stroke:none" /></g><g
           transform="translate(102.1424,238.2809)"
           id="g122"><path
             d="m 0,0 c -0.743,0.497 -1.605,0.759 -2.493,0.759 -1.51,0 -2.911,-0.749 -3.747,-2.001 -1.378,-2.064 -0.82,-4.863 1.242,-6.24 0.743,-0.497 1.606,-0.761 2.495,-0.761 1.509,0 2.909,0.749 3.745,2.001 C 2.621,-4.178 2.063,-1.378 0,0"
             inkscape:connector-curvature="0"
             id="path124"
             style="fill:#373535;fill-opacity:1;fill-rule:nonzero;stroke:none" /></g><g
           transform="translate(152.3789,176.0111)"
           id="g126"><path
             d="m 0,0 c -0.465,0.494 -1.242,0.518 -1.735,0.053 l -21.781,-20.482 4.195,-1.798 L 0,-1.682 C 0.439,-1.213 0.446,-0.475 0,0"
             inkscape:connector-curvature="0"
             id="path128"
             style="fill:#ef404f;fill-opacity:1;fill-rule:nonzero;stroke:none" /></g><g
           transform="translate(129.3158,147.7093)"
           id="g130"><path
             d="m 0,0 4.235,4.235 -7.411,3.176 -2.118,-2.118 -0.529,0.53 -1.059,-1.059 0.53,-0.529 -2.118,-2.118 5.294,-5.293 2.117,2.117 0.53,-0.529 1.058,1.059 L 0,0 z"
             inkscape:connector-curvature="0"
             id="path132"
             style="fill:#373535;fill-opacity:1;fill-rule:nonzero;stroke:none" /></g><g
           transform="translate(120.8462,147.7093)"
           id="g134"><path
             d="M 0,0 -1.059,1.059 -8.469,-6.352 -7.411,-7.411 0,0 z"
             inkscape:connector-curvature="0"
             id="path136"
             style="fill:#373535;fill-opacity:1;fill-rule:nonzero;stroke:none" /></g><g
           transform="translate(122.9636,145.5918)"
           id="g138"><path
             d="M 0,0 -1.059,1.059 -8.469,-6.352 -7.411,-7.411 0,0 z"
             inkscape:connector-curvature="0"
             id="path140"
             style="fill:#373535;fill-opacity:1;fill-rule:nonzero;stroke:none" /></g><g
           transform="translate(116.6115,137.1223)"
           id="g142"><path
             d="M 0,0 1.059,-1.059 8.47,6.352 7.411,7.411 0,0 z"
             inkscape:connector-curvature="0"
             id="path144"
             style="fill:#373535;fill-opacity:1;fill-rule:nonzero;stroke:none" /></g><g
           transform="translate(110.7887,138.7103)"
           id="g146"><path
             d="M 0,0 4.235,-4.235 5.293,-3.176 1.059,1.059 0,0 z"
             inkscape:connector-curvature="0"
             id="path148"
             style="fill:#373535;fill-opacity:1;fill-rule:nonzero;stroke:none" /></g><g
           transform="translate(288.8795,176.0118)"
           id="g150"><path
             d="m 0,0 c -0.464,0.493 -1.239,0.517 -1.732,0.053 l -21.825,-20.524 3.033,-3.033 L 0,-1.679 C 0.438,-1.211 0.446,-0.474 0,0"
             inkscape:connector-curvature="0"
             id="path152"
             style="fill:#73c050;fill-opacity:1;fill-rule:nonzero;stroke:none" /></g><g
           transform="translate(247.2888,139.7592)"
           id="g154"><path
             d="M 0,0 1.057,-1.057 0,-2.113 3.17,-5.284 4.227,-4.227 5.284,-5.284 13.737,3.17 8.454,8.454 0,0 z"
             inkscape:connector-curvature="0"
             id="path156"
             style="fill:#373535;fill-opacity:1;fill-rule:nonzero;stroke:none" /></g><g
           transform="translate(257.3279,148.7413)"
           id="g158"><path
             d="M 0,0 4.227,-4.227 5.284,-3.17 1.057,1.057 0,0 z"
             inkscape:connector-curvature="0"
             id="path160"
             style="fill:#373535;fill-opacity:1;fill-rule:nonzero;stroke:none" /></g><g
           transform="translate(259.4412,150.855)"
           id="g162"><path
             d="M 0,0 4.227,-4.227 5.284,-3.17 1.057,1.057 0,0 z"
             inkscape:connector-curvature="0"
             id="path164"
             style="fill:#373535;fill-opacity:1;fill-rule:nonzero;stroke:none" /></g><g
           transform="translate(267.3667,151.3832)"
           id="g166"><path
             d="M 0,0 -3.17,3.17 -4.227,2.113 -5.284,3.17 -6.34,2.113 -1.057,-3.17 0,-2.113 -1.057,-1.057 0,0 z"
             inkscape:connector-curvature="0"
             id="path168"
             style="fill:#373535;fill-opacity:1;fill-rule:nonzero;stroke:none" /></g><g
           transform="translate(301.4642,79.363)"
           id="g170"><path
             d="M 0,0 C -0.34,3.514 -1.127,8.618 -2.526,12.081 -4.179,11.299 -5.63,10.208 -6.901,8.886 -3.467,5.98 -1.161,2.208 0,0"
             inkscape:connector-curvature="0"
             id="path172"
             style="fill:#373535;fill-opacity:1;fill-rule:nonzero;stroke:none" /></g><g
           transform="translate(315.4371,88.2493)"
           id="g174"><path
             d="M 0,0 C -1.271,1.322 -2.723,2.413 -4.376,3.194 -5.774,-0.268 -6.561,-5.372 -6.901,-8.886 -5.74,-6.678 -3.435,-2.906 0,0"
             inkscape:connector-curvature="0"
             id="path176"
             style="fill:#373535;fill-opacity:1;fill-rule:nonzero;stroke:none" /></g><g
           transform="translate(317,61.2752)"
           id="g178"><path
             d="m 0,0 c -0.415,0 -0.75,0.335 -0.75,0.75 0,2.251 -2.47,4.258 -6.011,5.282 0.065,0.243 0.118,0.482 0.118,0.718 0,0.3 -0.055,0.586 -0.142,0.862 C -2.308,6.46 0.75,3.855 0.75,0.75 0.75,0.335 0.415,0 0,0 M -6.022,-1.908 C -6.078,-2.13 -6.277,-2.276 -6.493,-2.275 l -9.373,0 -0.436,0 c -0.945,0.004 -1.708,0.825 -1.704,1.779 0.004,0.955 0.774,1.725 1.719,1.721 0.143,-0.001 0.289,-0.022 0.421,-0.055 l 9.373,-2.449 0.123,-0.032 c 0.26,-0.068 0.415,-0.335 0.348,-0.597 M -23.25,0.75 C -23.25,0.335 -23.585,0 -24,0 c -0.415,0 -0.75,0.335 -0.75,0.75 0,3.105 3.058,5.71 7.535,6.862 -0.087,-0.276 -0.142,-0.562 -0.142,-0.862 0,-0.236 0.053,-0.475 0.118,-0.718 C -20.78,5.008 -23.25,3.001 -23.25,0.75 m 5.444,11.975 2.612,0 C -15.074,12.509 -15,12.264 -15,12 c 0,-0.828 -0.672,-1.5 -1.5,-1.5 -0.828,0 -1.5,0.672 -1.5,1.5 0,0.264 0.074,0.509 0.194,0.725 M -12,9 c 2.13,0 3.857,-1.007 3.857,-2.25 0,-0.143 -0.028,-0.282 -0.072,-0.417 -0.182,0.056 -0.371,0.095 -0.571,0.095 -1.017,0 -1.841,-0.789 -1.914,-1.788 -0.408,-0.085 -0.841,-0.14 -1.3,-0.14 -0.459,0 -0.892,0.055 -1.3,0.14 -0.073,0.999 -0.897,1.788 -1.914,1.788 -0.2,0 -0.389,-0.039 -0.571,-0.095 -0.044,0.135 -0.072,0.274 -0.072,0.417 0,1.243 1.727,2.25 3.857,2.25 m 3.194,3.725 2.612,0 C -6.074,12.509 -6,12.264 -6,12 c 0,-0.828 -0.672,-1.5 -1.5,-1.5 -0.828,0 -1.5,0.672 -1.5,1.5 0,0.264 0.074,0.509 0.194,0.725 M 2.175,21.613 C -3.003,19.059 -5.667,15.927 -5.71,15.873 -5.785,15.784 -5.892,15.737 -6,15.737 c -0.084,0 -0.168,0.028 -0.239,0.085 -0.159,0.132 -0.183,0.368 -0.051,0.527 0.045,0.056 2.788,3.29 8.115,5.924 -0.83,1.509 -1.783,2.905 -2.872,4.138 C -6.039,22.203 -8.614,16.065 -8.653,15.971 -8.667,15.936 -8.697,15.917 -8.719,15.889 -8.737,15.867 -8.747,15.846 -8.769,15.828 -8.836,15.774 -8.913,15.737 -9,15.737 l -0.022,0 c -0.006,0 -0.009,0.006 -0.015,0.007 -0.035,0.004 -0.07,0.007 -0.104,0.021 -0.028,0.011 -0.036,0.042 -0.06,0.059 -0.042,0.029 -0.073,0.056 -0.1,0.099 -0.026,0.041 -0.036,0.079 -0.045,0.127 -0.006,0.03 -0.031,0.052 -0.029,0.084 0.031,0.519 0.573,9.027 2.751,14.335 -1.606,0.652 -3.384,1.031 -5.376,1.031 -1.992,0 -3.77,-0.379 -5.376,-1.031 2.178,-5.309 2.72,-13.816 2.751,-14.335 0.002,-0.032 -0.023,-0.054 -0.029,-0.084 -0.009,-0.048 -0.019,-0.086 -0.045,-0.127 -0.027,-0.043 -0.058,-0.07 -0.1,-0.099 -0.024,-0.017 -0.032,-0.048 -0.06,-0.059 -0.034,-0.014 -0.069,-0.017 -0.104,-0.021 -0.006,-10e-4 -0.009,-0.007 -0.015,-0.007 l -0.022,0 c -0.087,0 -0.164,0.037 -0.231,0.091 -0.022,0.018 -0.032,0.039 -0.05,0.061 -0.022,0.028 -0.052,0.047 -0.066,0.082 -0.039,0.094 -2.614,6.232 -7.606,10.44 -1.089,-1.233 -2.042,-2.629 -2.872,-4.138 5.327,-2.634 8.07,-5.868 8.115,-5.924 0.132,-0.159 0.108,-0.395 -0.051,-0.527 -0.071,-0.057 -0.155,-0.085 -0.239,-0.085 -0.108,0 -0.215,0.047 -0.29,0.136 -0.043,0.054 -2.706,3.186 -7.885,5.74 C -31.493,11.321 -31.5,-3.314 -31.5,-3.314 -31.5,-4.797 -30.253,-6 -28.714,-6 l 6.214,0 3.726,-3.145 2.709,1.355 4.065,-2.71 4.065,2.71 2.709,-1.355 L -1.5,-6 4.714,-6 c 1.539,0 2.786,1.203 2.786,2.686 0,0 -0.007,14.635 -5.325,24.927"
             inkscape:connector-curvature="0"
             id="path180"
             style="fill:#373535;fill-opacity:1;fill-rule:nonzero;stroke:none" /></g></g></g><text
       transform="matrix(1,0,0,-1,17.0381,14)"
       id="text182"><tspan
         x="0 3.7920001 8.2399998 15.128 19.688 24.247999 26.368 28.488001 32.528 37.088001 41.647999 45.543999 47.400002 51.439999 56 62.888 65.047997 68.487999 70.648003 75.208 79.559998 83.552002 85.671997 90.232002 94.792 99.223999 103.784 105.944 110.3448 114.7928 116.9528 123.6408 127.5536 131.9856 136.54559 140.5376 142.65759 147.21761 149.3376 153.6096 159.3936 163.9536 167.29761 169.4176 173.9776 176.1376 179.57761 181.73759 185.65041 188.75439 193.1544 196.4984 198.6584 204.3064 208.70641 211.8904 215.8824 218.0424 220.1624 224.1544 226.31441 230.7144 232.8744 236.0192 240.4512 245.0112 247.1312 251.0432 254.10719 258.53922 261.6832 266.1152 270.6752 272.83521 276.0592 279.12399 283.52399 288.08401 292.51599 299.40399 303.80399 307.14801 311.38 313.54001 317.9808 320.8768 323.0368 325.1568 329.7168 333.75681 338.1568 342.06879 347.02881 349.1488 356.0368 358.19681 360.3168 363.34161 367.90161"
         y="0"
         id="tspan184"
         style="font-size:8px;font-variant:normal;font-weight:normal;font-stretch:normal;writing-mode:lr-tb;fill:#c0c2c4;fill-opacity:1;fill-rule:nonzero;stroke:none;font-family:Interstate Regular;-inkscape-font-specification:Interstate-Regular">symbolicons.com • designed by @sensibleworld • star wars is a registered trademark of lucasflm ltd.</tspan></text>
</g></svg>